<svg viewBox="479.800048828125 371.8999938964844 136.7999267578125 89.10000610351562" width="136.7999267578125" height="89.10000610351562" xmlns="http://www.w3.org/2000/svg" transform="rotate(90)"><path class="st3" d="M578.5,371.9c2.3,0.1,5.6,2.7,7.3,3.8c0.5,0.3,2.1,1,2.3,1.5c-5.5,0-10.9,0-16.4,0c0.1-0.1,0.2-0.2,0.3-0.4
		c1.3-1.2,2.6-2.4,3.8-3.6c0,0,0,0,0,0c0,0.2,0,0.4,0,0.5c0.8,0,1.7,0,2.5,0C578.5,373.1,578.5,372.5,578.5,371.9z M578.1,372.1
		c0,0.1,0,0.2,0,0.3c-0.3-0.1-1.7-0.2-1.8-0.3C577,372.1,577.5,372.1,578.1,372.1z M578.1,373.3c-0.6,0-1.2,0-1.8,0
		c0-0.1,0-0.2,0-0.3c0.7,0.1,1.3,0,1.8-0.2C578.1,373,578.1,373.2,578.1,373.3z M571.4,377.6c0.5,0,0.9,0,1.4,0
		c-0.6,0.6-1.2,1.2-1.7,1.8c-7.6,7.6-15.3,15.1-22.9,22.7c-0.8,0-1.6-0.1-2.4-0.1c0,0,0,0,0,0c0.1-0.1,0.2-0.2,0.3-0.3
		c1.7-1.6,3.4-3.1,5-4.7c-1.3,0-4.5,0.3-5.3-0.3c0,0,0,0,0,0c1.5-0.5,3.8-0.1,5.7,0C558.1,390.2,564.7,383.9,571.4,377.6z
		 M573.4,377.6c2.1,0,4.2,0,6.3,0c-1.8,3.7-3.7,7.4-5.5,11.1c-4,0-7.9,0-11.9,0c2.2-2.2,4.4-4.4,6.6-6.6
		C570.3,380.6,571.8,379.1,573.4,377.6z M580.1,377.6c1,0,2,0,3.1,0c-1.9,4-3.7,8.1-5.6,12.1c-1.2,0-2.4,0-3.5,0c0,0,0,0,0,0
		C576.1,385.6,578.1,381.6,580.1,377.6z M583.6,377.6c1.5,0,2.9,0,4.4,0c0,0,0,0.1,0,0.1c0,0.1-0.1,0.3-0.1,0.4c-1.5,0-3,0-4.5,0
		C583.5,377.9,583.6,377.7,583.6,377.6z M583.2,378.5c1.5,0,3,0,4.5,0c-1.1,3.7-2.1,7.4-3.2,11.1c-2.2,0-4.3,0-6.5,0
		C579.8,386,581.5,382.2,583.2,378.5z M608.5,387.5c1.9,0,4.6,1.7,5.9,2.5c0.6,0.3,1.6,0.5,1.9,1.1c0.1,0.5-0.1,0.9-0.2,1.3
		c-0.1,0-0.1,0-0.2,0c-2.4-0.7-4.8-1.4-7.2-2.1c-1.1-0.3-2.4-0.5-3.2-1.1c0,0,0.1,0,0.1,0C606.4,388.3,607.4,388,608.5,387.5z
		 M561.8,389.1c4,0,8,0,12.1,0c-0.1,0.3-0.3,0.6-0.4,0.8c-4.2,0-8.3,0-12.5,0C561.2,389.6,561.5,389.3,561.8,389.1z M605.2,389.6
		c0.6,0.2,1.2,0.5,1.7,0.7c-0.1,0.1-0.2,0.2-0.2,0.2c-4.3,4.6-8.6,9.1-12.9,13.7c-2.1,0-4.2,0-6.3,0c1.3-0.2,2.6-0.5,3.9-0.7
		c1.9-1.6,3.8-3.2,5.7-4.8c-0.8,0-1.7,0-2.5,0c0.1-0.1,0.1-0.2,0.2-0.2C598.3,395.6,601.8,392.6,605.2,389.6z M577.5,390
		c0,4.5,0,9.1,0,13.6c-2.4,0.6-4.9,1.1-7.3,1.7c1.2-5.1,2.4-10.2,3.7-15.3C575.1,390,576.3,390,577.5,390z M578,390
		c2.2,0,4.4,0,6.6,0c0,4,0,8,0,12c-2.2,0-4.4,0-6.6,0C578,398.1,578,394.1,578,390z M573.4,390.3c-1.2,5-2.4,10.1-3.6,15.1
		c-0.7,0.2-1.5,0.3-2.2,0.5c-0.6-0.2-1.2-0.4-1.8-0.6c-1.3-0.4-2.6-0.7-3.9-1.1c-2.6-0.7-5.3-1-8.1-1.6c-1.5-0.3-3.3-0.6-5-0.6
		c1.5-1.5,2.9-3,4.4-4.4c2.3-2.3,4.7-4.6,7.1-7c-0.8,4.1-1.7,8.3-2.5,12.4c0,0,0,0.1,0,0.1c0.1,0,0.2,0,0.4,0
		c0.9-4.3,1.7-8.6,2.6-13C564.9,390.3,569.1,390.3,573.4,390.3z M607.4,390.4c2.9,0.8,5.7,1.6,8.6,2.5c-1.4,3.8-2.7,7.5-4.1,11.3
		c-5.8,0-11.6,0-17.4,0c0.1-0.1,0.1-0.1,0.2-0.2C598.9,399.5,603.1,395,607.4,390.4z M534.1,404.2c1.8,0,3.5,0.1,5.3,0.1
		c0-0.1,0-0.3,0-0.4c-2.2-0.1-4.4-0.1-6.6-0.2c1.2-0.3,2.4-0.6,3.6-0.9c1.4-0.2,2.8-0.3,4.2-0.5c1.8-0.3,4.7-0.2,6.4,0
		c1,0.1,1.9,0.1,2.9,0.2c2.4,0.4,4.8,0.5,7.2,1.1c2.1,0.5,4.2,0.9,6.2,1.4c1.4,0.4,2.7,0.8,4.1,1.2c0,0.7,0,1.4,0,2.2
		c-1.4,0.3-4.5,1.6-3.6,3.5c-4.9-0.5-9.8-1-14.7-1.5c-1.4,0.9-2.8,1.8-4.2,2.7c-1-0.2-2-0.3-3-0.5c-1.3-0.2-2.7-0.4-4-0.6
		c-1.2-0.2-2.5-0.5-3.7-0.7C534.1,409,534.1,406.6,534.1,404.2z M578,402.5c1.5,0,3,0,4.4,0c-1.5,0.3-3,0.7-4.4,1
		C578,403.2,578,402.9,578,402.5z M584.6,402.5c0,0.9,0,1.8,0,2.7c-0.4,0-0.9,0.1-1.1,0.4c0,0.1,0,0.2,0,0.2
		c0.3,0.2,0.7,0.3,1.1,0.5c0,0.1,0,0.3,0,0.4c-4.5,0-8.8,0-12.7,0.7c-1.4,0.3-2.8,0.6-4.1,0.9c0-0.5-0.2-1.7,0.1-2
		c2.1-0.5,4.1-0.9,6.2-1.4c2.4-0.6,4.8-1.1,7.2-1.7C582.3,403,583.4,402.5,584.6,402.5z M585,402.5c2.3,0,4.7,0,7,0
		c-0.7,0.9-5.2,1.6-6.8,1.7c0,0.1,0,0.3,0,0.4c0.9,0,1.9,0,2.8,0c-1,0.1-2,0.2-3.1,0.4C585,404.2,585,403.4,585,402.5z M532.1,404.2
		c0,1.2,0,2.4,0,3.7c-0.9,0-1.8,0-2.7,0c0,0.9,0,1.8,0,2.7c0.9,0,1.8,0,2.7,0c0,0.1,0,0.3,0,0.4c-1.3-0.2-2.6-0.3-3.9-0.5
		c-1.4-0.1-2.9-0.2-4.3-0.4c-1.8-0.1-3.7-0.2-5.5-0.2c0-1.5-0.2-3.4,0.1-4.6c1-0.7,2.6-0.5,4.1-0.7
		C525.5,404.1,529,404.2,532.1,404.2z M532.5,404.2c0.4,0,0.9,0,1.3,0c0,2.3,0,4.7,0,7c-0.4-0.1-0.9-0.1-1.3-0.2
		C532.5,408.8,532.5,406.5,532.5,404.2z M595.7,404.7c0.6,0,1.2,0,1.8,0c-2,0-4.1,0.1-6.1,0.1C592.8,404.8,594.2,404.7,595.7,404.7z
		 M609.1,404.7c0,0,0.1,0,0.1,0C609.2,404.7,609.1,404.7,609.1,404.7z M585,405.5c8-0.2,16-0.4,24-0.6c-1.7,0.2-3.4,0.4-5.1,0.6
		c-2.2,0.2-4.3,0.3-6.5,0.5c-1.7,0.3-3.5-0.1-5.3,0.2c-2,0.3-5.2,0.1-7-0.3C585,405.8,585,405.6,585,405.5z M590.4,404.9
		c0.3,0,0.6,0,0.8,0C591,404.9,590.7,404.9,590.4,404.9z M610.9,404.9c0,0,0.1,0,0.1,0C611,404.9,611,404.9,610.9,404.9z M585,406.7
		c0-0.1,0-0.2,0-0.4c3.8,0.4,8.9,0.6,12.7,0c1.8-0.1,3.6-0.3,5.5-0.4c2.6-0.3,5.2-0.6,7.7-0.9c-2.6,0.9-5.2,1.8-7.7,2.8
		c-2-0.2-3.9-0.4-5.9-0.6c-1.4-0.1-2.7-0.2-4.1-0.3C590.6,406.5,587.8,406.7,585,406.7z M584.6,405.8c-0.2,0-0.3-0.1-0.5-0.1
		c0.2,0,0.3-0.1,0.5-0.1C584.6,405.6,584.6,405.7,584.6,405.8z M537.4,406.1c0,1.5,0,2.9,0,4.4c1.7,0,3.4,0,5.1,0c0-1.5,0-2.9,0-4.4
		C540.9,406.1,539.2,406.1,537.4,406.1z M537.8,406.5c1,0,2,0,3,0c0,1.2,0,2.4,0,3.5c-1,0-2,0-3,0
		C537.8,408.9,537.8,407.7,537.8,406.5z M541.2,406.5c0.1,0,0.2,0,0.3,0c0,1.2,0,2.4,0,3.5c-0.1,0-0.2,0-0.3,0
		C541.2,408.9,541.2,407.7,541.2,406.5z M541.8,406.5c0.1,0,0.2,0,0.4,0c0,1.2,0,2.4,0,3.5c-0.1,0-0.2,0-0.4,0
		C541.8,408.9,541.8,407.7,541.8,406.5z M584.6,407c0,2.9,0,5.7,0,8.6c-3.1,0-6.4,0-9.3-0.5c-1.1-0.1-2.1-0.3-3.2-0.4
		c0-2.3,0-4.6,0-6.8c-0.1,0-0.2,0-0.4,0c0,2.2,0,4.5,0,6.7c-0.5-0.1-0.9-0.2-1.4-0.2c0-1.5,0-3.1,0-4.6c0-0.4-0.1-1.4,0.1-1.7
		c1.2-0.5,2.8-0.4,4.3-0.6C577.7,407,581.2,407,584.6,407z M585,407c1.9,0,3.8,0.1,5.7,0.1c0,2.7,0,5.4,0,8.1c0.6,0,1.3,0,1.9,0
		c0,0.1,0,0.1,0,0.2c-2.5,0.1-5,0.1-7.6,0.2C585,412.8,585,409.9,585,407z M591.1,407.2c1.3,0.1,2.7,0.2,4,0.2
		c0,2.6,0.1,5.3,0.1,7.9c-0.7,0-1.5,0.1-2.2,0.1c0-0.2,0-0.4,0-0.6c-0.6,0-1.3,0-1.9,0C591.1,412.3,591.1,409.8,591.1,407.2z
		 M597.7,407.7c0,0.3,0,0.6,0,0.9c-0.7,0-1.5-0.1-2.2-0.1c0-0.3,0-0.6,0-1C596.2,407.5,596.9,407.6,597.7,407.7z M598.1,407.7
		c0.4,0,0.9,0.1,1.3,0.1c0,2.5,0,5,0,7.5c-0.4,0-0.9,0-1.3,0C598.1,412.8,598.1,410.3,598.1,407.7z M604,408.3c0,0.3,0,0.6,0,0.8
		c-1.4-0.1-2.8-0.2-4.2-0.4c0-0.3,0-0.6,0-0.9C601.2,408,602.6,408.1,604,408.3z M570,408.2c0,2,0,4.1,0,6.1c-1.8-0.2-5.9-1.5-6.1-3
		C563.7,409.8,568.4,408.3,570,408.2z M529.8,408.3c0.1,0,0.1,0,0.2,0c0,0.6,0,1.3,0,1.9c-0.1,0-0.1,0-0.2,0
		C529.8,409.5,529.8,408.9,529.8,408.3z M530.4,408.3c0.2,0,0.3,0,0.5,0c0,0.6,0,1.2,0,1.8c-0.2,0-0.3,0-0.5,0
		C530.4,409.5,530.4,408.9,530.4,408.3z M531.2,408.3c0.1,0,0.2,0,0.3,0c0,0.6,0,1.2,0,1.8c-0.1,0-0.2,0-0.3,0
		C531.2,409.5,531.2,408.9,531.2,408.3z M531.8,408.3c0.2,0.2,0.2,1.6,0,1.9c0,0,0,0,0,0C531.8,409.5,531.8,408.9,531.8,408.3z
		 M595.5,408.8c0.7,0.1,1.5,0.1,2.2,0.2c0,0.3,0,0.6,0,1c0,0,0,0,0,0c-0.7,0-1.4-0.1-2.1-0.1C595.5,409.5,595.5,409.1,595.5,408.8z
		 M599.8,409.1c1.4,0.1,2.8,0.2,4.2,0.3c0,0.3,0,0.5,0,0.8c-1.4-0.1-2.8-0.2-4.2-0.2C599.8,409.7,599.8,409.4,599.8,409.1z
		 M595.5,410.2c0.7,0,1.4,0.1,2.2,0.1c0,0.3,0,0.6,0,0.9c-0.5,0-1.8,0.2-2.1-0.1C595.5,410.8,595.5,410.5,595.5,410.2z M544.8,413.5
		c0,1.5,0,2.9,0,4.4c-4.2,0.2-7.9,1.2-11.9,1.8c-3.2,0.5-6.7,0.2-10.2,0.3c-5.7,0.1-11.5-0.1-17.1-0.3c0-0.5,0-1,0-1.6
		c1.6,0.6,4.5,0.2,6.5,0.2c4.6,0,9.1,0,13.7,0c3.6,0,6.2,0.5,6.7-2.8c0.3-1.9-1.3-3.1-2.5-3.6c-1.3-0.5-5.2-0.2-7-0.2
		c-3.8,0-7.7,0-11.5,0c-1.9,0-4.4-0.2-6,0.2c0-0.5,0-1,0-1.6c2.8,0,5.5-0.1,8.4-0.3c0.9,0,1.8,0,2.7,0c0.8,0,1.7,0,2.5,0
		c1.4,0.1,2.7,0.1,4.1,0.2c1.5,0.1,3,0.2,4.5,0.3c2.3,0.3,4.7,0.7,7,1C538,412.5,541.4,413.3,544.8,413.5z M599.8,410.4
		c1.4,0.1,2.8,0.1,4.2,0.2c0,0.2,0,0.4,0,0.5c-1.4,0-2.8,0-4.2,0C599.8,410.9,599.8,410.7,599.8,410.4z M505.3,410.6
		c0,0.5,0,0.9,0,1.4c-2.4,0-4.8,0-7.2,0c0-0.3,0-0.5,0-0.8C500.5,411,502.9,410.8,505.3,410.6z M563.8,412.3c0,0.9,0,1.9,0,2.8
		c-4.5-0.5-9.1-0.6-13.4-1.3c-1.6-0.2-3.2-0.4-4.9-0.6c0,0,0.1,0,0.1,0c1.2-0.8,2.3-1.5,3.5-2.3C554,411.3,558.9,411.8,563.8,412.3z
		 M497.7,411.3c0.3,0.3,0.1,1.6,0.1,2.1c0,2,0,4,0,6c0,0,0,0,0,0c-1.1-0.2-2.3-0.3-3.4-0.5c-3.4-0.8-6.8-1.7-10.3-2.5
		c-0.8-0.2-4.2-0.7-4.3-1.4c1-0.7,2.7-0.7,4-1.1c3.1-0.8,6.4-1.4,9.7-2C494.8,411.6,496.2,411.4,497.7,411.3z M595.6,411.6
		c0.7,0,1.4,0,2.1,0c0,0.2,0,0.5,0,0.7c-0.7,0-1.4,0-2.1,0C595.6,412.1,595.6,411.8,595.6,411.6z M599.8,411.6c1.4,0,2.8,0,4.2,0
		c0,0.2,0,0.5,0,0.7c-1.4,0-2.8,0-4.2,0C599.8,412.1,599.8,411.8,599.8,411.6z M506.3,412.4c6.6,0,13.1,0,19.7,0c1.2,0,2.4,0,3.6,0
		c1.3,0.3,3,1.6,2.7,3.5c-0.5,2.6-3,2.2-6,2.2c-4.8,0-9.6,0-14.4,0c-1.9,0-4.7,0.4-6.2-0.3c-1.1-0.5-2.3-2.1-1.5-3.8
		C504.5,413,505.3,412.8,506.3,412.4z M498.2,412.4c2.3,0,4.6,0,6.8,0c0,0,0,0.1,0,0.1c-1.5,0.6-2,3.1-1,4.5
		c0.3,0.5,0.9,0.7,1.3,1.1c0,0,0,0,0,0c-2.4,0-4.8,0-7.2,0C498.1,416.2,498.1,414.3,498.2,412.4z M516.7,412.5
		c-1.3,0.5-4-0.4-5.3,0.1c-0.8,1.6-1,3.6,0.1,5.2c3.5,0,6.9,0,10.4,0c-0.1-0.1-0.2-0.2-0.4-0.4c-0.7-1.8-0.7-3.5,0.4-4.9
		c0,0,0,0,0,0C520.2,412.5,518.4,412.5,516.7,412.5z M539.4,426.3c0-0.1,0-0.3,0-0.4c-1.7,0-3.3,0.1-5,0.1c0-2.1,0-4.1,0-6.2
		c2.2-0.4,4.4-0.8,6.6-1.2c1.3-0.2,2.5-0.3,3.8-0.5c1.3,0.9,2.7,1.9,4,2.8c5.1-0.5,10.1-1.1,15.2-1.6c0-0.9,0-1.7,0-2.6
		c1.8,0,4.5,0.1,5.6-0.7c0-0.3,0-0.3-0.1-0.4c-1.6-0.5-3.6-0.4-5.5-0.6c0-0.9,0-1.7,0-2.6c0,0,0.1,0.1,0.1,0.1
		c0.6,0.3,1.2,0.7,1.8,1c1.2,0.5,2.5,0.8,3.9,1.1c0,0.9,0,1.9,0,2.8c-2,0.3-5.9,1.4-6.4,3c-0.6,1.8,2.6,3,3.9,3.3c0,0.6,0,1.2,0,1.8
		c-2.7,0.7-5.6,1.4-8.5,2.1c-2.4,0.5-4.9,0.5-7.5,1c-1.7,0.3-5.1,0.6-6.9,0.3c-0.9,0-1.7,0-2.6,0c-1.4-0.1-2.9-0.2-4.3-0.4
		c-3.2-0.6-6.8-0.8-9.1-2.2C532.2,426.4,535.9,426.3,539.4,426.3z M506.5,412.6c-0.5,0.3-1,0.4-1.5,0.7c-1.3,1.1-0.7,3.3,0.5,4.1
		c1.1,0.7,3.5,0.5,5.3,0.5c-0.1-0.1-0.2-0.2-0.3-0.3c-0.8-1.8-0.7-3.5,0.4-5C509.5,412.6,508,412.6,506.5,412.6z M522.4,412.6
		c-1,1.3-0.9,4,0,5.3c1.8,0,3.6,0,5.4,0c0.7,0,1.6,0.1,2.1-0.1c0.8-0.3,1.4-1.1,1.6-2C532.3,411.8,526,412.5,522.4,412.6z
		 M595.6,412.7c0.7,0,1.4,0,2.1,0c0,0.3,0,0.6,0,1c-0.7,0-1.4,0.1-2.1,0.1C595.6,413.5,595.6,413.1,595.6,412.7z M599.8,412.7
		c1.4,0,2.8,0,4.2,0c0,0.2,0,0.4,0,0.6c-1.4,0.1-2.8,0.2-4.2,0.2C599.8,413.3,599.8,413,599.8,412.7z M506.7,412.9
		c1.1,0,2.3,0,3.4,0c-0.6,1.3-0.5,3.2,0,4.5c-1.4,0-3.4,0.2-4.3-0.4c-1.1-0.7-1.6-2.6-0.4-3.6C505.8,413.2,506.2,413.2,506.7,412.9z
		 M511.7,412.9c3.2,0,6.3,0,9.5,0c-0.6,1.2-0.6,3.4,0,4.6c-3.2,0-6.4,0-9.5,0C511,416.1,511,414.2,511.7,412.9z M522.6,412.9
		c3.2,0,8.9-0.8,8.6,2.6c-0.1,0.9-0.6,1.7-1.3,2c-0.5,0.2-1.4,0.1-2.1,0.1c-1.8,0-3.5,0-5.3,0C522,416.3,521.9,414,522.6,412.9z
		 M534.4,413.3c0,1.5,0,2.9,0,4.4c0.3,0,0.6,0,0.9,0c0-1.5,0-2.9,0-4.4C534.9,413.3,534.7,413.3,534.4,413.3z M535.5,413.3
		c0,1.5,0,2.9,0,4.4c0.3,0,0.6,0,0.8,0c0-1.5,0-2.9,0-4.4C536.1,413.3,535.8,413.3,535.5,413.3z M537.6,417.7c0-1.5,0-2.9,0-4.4
		c-0.3,0-0.6,0-0.9,0c0,1.4,0,2.9,0,4.4C537,417.7,537.3,417.7,537.6,417.7z M545.2,413.6c1.5,0.2,3,0.4,4.4,0.6
		c2.1,0.2,4.2,0.4,6.4,0.6c2.6,0.2,5.2,0.5,7.7,0.7c0,0.3,0,0.7,0,1c-6.3,0-12.6,0.9-18.6,1.3C545.2,416.4,545.2,415,545.2,413.6z
		 M534.8,413.7c0,1.2,0,2.4,0,3.6C534.8,416.1,534.8,414.9,534.8,413.7z M535.9,413.7c0.1,0.1,0.2,3.3,0,3.6c0,0,0,0,0,0
		C535.9,416.1,535.9,414.9,535.9,413.7z M537.1,413.7c0.1,0.1,0.2,3.3,0,3.6c0,0,0,0,0,0C537.1,416.1,537.1,414.9,537.1,413.7z
		 M604,413.7c0,0.3,0,0.5,0,0.8c-1.4,0-2.8,0.1-4.2,0.1c0-0.2,0-0.5,0-0.7C601.2,413.9,602.6,413.8,604,413.7z M597.7,414.1
		c0,0.2,0,0.5,0,0.7c-0.7,0-1.3,0-2,0c0-0.2,0-0.4,0-0.6C596.3,414.2,597,414.1,597.7,414.1z M570.4,414.8c0.5,0.1,0.9,0.2,1.4,0.2
		c0,0.7,0,1.5,0,2.2c-0.5,0.1-0.9,0.2-1.4,0.2C570.4,416.6,570.4,415.7,570.4,414.8z M604,415c0,0.1,0,0.3,0,0.4c-1.4,0-2.8,0-4.2,0
		c0-0.1,0-0.2,0-0.2C601.2,415.1,602.6,415,604,415z M584.6,416c0,0.2,0,0.3,0,0.5c-4.4,0-8.6,0.2-12.4,0.7c0-0.7,0-1.4,0-2.1
		c1.1,0.1,2.2,0.3,3.3,0.4C578.3,416,581.5,416,584.6,416z M597.1,415.2c0.2,0,0.4,0,0.5,0c0,0.1,0,0.1,0,0.2c-0.7,0-1.3-0.1-2-0.1
		C596.1,415.2,596.6,415.2,597.1,415.2z M564.2,415.5c1.3,0,4.1,0,5,0.5c0,0,0,0,0,0c-1.5,0.2-3.3,0.4-5,0.4
		C564.2,416.1,564.2,415.8,564.2,415.5z M603,415.8c0,0.4,0,0.8,0,1.2c-3.3,0-6.9-0.2-10.1-0.3c0-0.3,0-0.6,0-0.9
		C596.3,415.8,599.7,415.8,603,415.8z M592.5,415.8c0,0.3,0,0.6,0,0.9c-2.4-0.3-5-0.2-7.6-0.2c0-0.2,0-0.3,0-0.5
		C587.5,415.9,590,415.9,592.5,415.8z M563.8,416.8c0,0.7,0,1.5,0,2.2c-4.9,0.5-9.8,1-14.8,1.6c-1.2-0.8-2.3-1.6-3.5-2.4
		C551.5,417.7,557.6,417.3,563.8,416.8z M584.6,416.8c0,2.9,0,5.7,0,8.6c-5,0-10-0.3-14.3-1.2c0-2.1,0-4.2,0-6.3
		c0.5-0.1,0.9-0.1,1.4-0.2c0,2.3,0,4.5,0,6.8c0.1,0,0.2,0,0.4,0c0-2.3,0-4.6,0-6.9c1.4-0.1,2.8-0.3,4.1-0.5
		C578.9,416.7,581.8,416.9,584.6,416.8z M585,416.8c2.5,0.1,5,0.2,7.6,0.2c0,0.1,0,0.2,0,0.2c-0.6,0-1.2,0-1.7,0c0,2.7,0,5.3,0,8
		c-1.9,0-3.9,0.1-5.8,0.1C585,422.6,585,419.7,585,416.8z M593,417.1c0.7,0,1.4,0.1,2.1,0.1c0.1,2.6,0.1,5.2,0.2,7.8
		c-1.4,0.1-2.7,0.2-4.1,0.2c0-2.5,0-5.1,0-7.6c0.6,0,1.2,0,1.8,0C593,417.5,593,417.3,593,417.1z M595.5,417.3c0.8,0,1.5,0,2.3,0
		c0,0.2,0,0.5,0,0.7c-0.8,0-1.5,0-2.3,0C595.5,417.8,595.5,417.5,595.5,417.3z M598.2,417.3c0.4,0,0.8,0,1.2,0c0,1.8,0,3.7,0,5.5
		c0,0.5,0.2,1.7-0.1,2c-0.4,0-0.7,0.1-1.1,0.1C598.2,422.4,598.2,419.8,598.2,417.3z M599.8,417.4c1.4,0,2.8,0,4.2,0
		c0,0.3,0,0.6,0,0.9c-1.4,0-2.8-0.1-4.2-0.1C599.8,417.9,599.8,417.6,599.8,417.4z M570,424.1c-1.6-0.1-6.3-1.7-6.1-3.2
		c0.2-1.6,4.3-2.7,6.1-3C570,420,570,422.1,570,424.1z M595.5,418.4c0.8,0,1.5,0.1,2.3,0.1c0,0.2,0,0.5,0,0.7
		c-0.7,0-1.5-0.1-2.2-0.1C595.5,418.8,595.5,418.6,595.5,418.4z M498.1,418.5c2.4,0,4.8,0,7.2,0c0,0.4,0,0.9,0,1.3
		c-2.4-0.2-4.8-0.3-7.2-0.5C498.1,419,498.1,418.7,498.1,418.5z M599.8,418.5c1.4,0,2.8,0.1,4.2,0.1c0,0.2,0,0.5,0,0.7
		c-1.4,0-2.8-0.1-4.2-0.1C599.8,419,599.8,418.7,599.8,418.5z M597.8,419.6c0,0.3,0,0.6,0,1c-0.7,0-1.5,0-2.2,0c0-0.3,0-0.7,0-1.1
		c0,0,0,0,0,0C596.3,419.5,597,419.5,597.8,419.6z M599.8,419.6c1.4,0,2.8,0.1,4.2,0.1c0,0.3,0,0.5,0,0.8c-1.4,0-2.8,0-4.2,0
		C599.8,420.2,599.8,419.9,599.8,419.6z M534,420c0,2,0,4.1,0,6.1c-0.5,0-1,0-1.6,0c0-2,0-4,0-6C533,420.1,533.5,420,534,420z
		 M532.1,420.1c0,0.1,0,0.2,0,0.4c-0.9,0-1.7,0-2.6,0c0,0.9,0,1.7,0,2.6c0.9,0,1.7,0,2.6,0c0,1,0,2,0,2.9c-3.6,0-7.1,0.2-10.4-0.3
		c-1.2-0.2-2.4-0.2-3.2-0.7c-0.3-1.3-0.1-3.1-0.1-4.6C523,420.4,527.6,420.2,532.1,420.1z M537.4,420.8c0,1.4,0,2.9,0,4.3
		c1.7,0,3.4,0,5.1,0c0-1.4,0-2.9,0-4.3C540.9,420.8,539.2,420.8,537.4,420.8z M529.8,420.9c0.1,0,0.1,0,0.2,0c0,0.6,0,1.3,0,1.9
		c-0.1,0-0.1,0-0.2,0C529.8,422.1,529.8,421.5,529.8,420.9z M530.4,420.9c0.2,0,0.3,0,0.5,0c0,0.6,0,1.2,0,1.8c-0.2,0-0.3,0-0.5,0
		C530.4,422.1,530.4,421.5,530.4,420.9z M531.2,420.9c0.1,0,0.2,0,0.3,0c0,0.6,0,1.2,0,1.8c-0.1,0-0.2,0-0.3,0
		C531.2,422.1,531.2,421.5,531.2,420.9z M531.9,420.9c0.2,0.2,0.2,1.6,0,1.9c0,0,0,0,0,0C531.9,422.1,531.9,421.5,531.9,420.9z
		 M595.6,420.9c0.7,0,1.5,0,2.2,0c0,0.3,0,0.6,0,0.9c-0.7,0-1.5,0-2.2,0C595.6,421.5,595.6,421.2,595.6,420.9z M599.8,420.9
		c1.4,0,2.8,0,4.2,0c0,0.3,0,0.6,0,0.9c-1.4,0-2.8,0-4.2,0C599.8,421.5,599.8,421.2,599.8,420.9z M537.8,421.2c1,0,2,0,3,0
		c0,1.2,0,2.4,0,3.5c-1,0-2,0-3,0C537.8,423.6,537.8,422.4,537.8,421.2z M541.2,421.2c0.1,0,0.2,0,0.3,0c0,1.2,0,2.4,0,3.5
		c-0.1,0-0.2,0-0.3,0C541.2,423.6,541.2,422.4,541.2,421.2z M541.8,421.2c0.1,0,0.2,0,0.4,0c0,1.2,0,2.4,0,3.5c-0.1,0-0.2,0-0.4,0
		C541.8,423.6,541.8,422.4,541.8,421.2z M595.6,422.2c0.7,0,1.5,0,2.2,0c0,0.2,0,0.5,0,0.7c-0.7,0-1.4,0.1-2.2,0.1
		C595.6,422.8,595.6,422.5,595.6,422.2z M599.8,422.2c1.4,0,2.8,0,4.2,0c0,0.2,0,0.4,0,0.6c-1.4,0-2.8,0.1-4.2,0.1
		C599.8,422.7,599.8,422.4,599.8,422.2z M604,423.2c0,0.2,0,0.5,0,0.7c-1.4,0.1-2.8,0.2-4.2,0.3c0-0.3,0-0.6,0-1
		C601.2,423.2,602.6,423.2,604,423.2z M597.8,423.4c0,0.3,0,0.7,0,1c-0.7,0-1.4,0.1-2.2,0.1c0-0.4,0-0.7,0-1.1
		C596.3,423.4,597,423.4,597.8,423.4z M584.6,429.9c-1.6,0-3.6-0.8-5-1.2c-3.9-1-7.8-1.9-11.7-2.9c0-0.6,0-1.2,0-1.7c0,0,0,0,0,0
		c3.3,1.1,7.1,1,11,1.6c1.9,0.1,3.8,0.1,5.7,0.2c0,0.4,0,0.8,0,1.1c-0.4,0-0.7,0.2-0.9,0.4c0,0.1,0,0.1,0,0.2
		c0.3,0.2,0.5,0.3,0.9,0.4C584.6,428.6,584.6,429.2,584.6,429.9z M604,424.3c0,0.1,0,0.2,0,0.3c-1.4,0.1-2.8,0.2-4.2,0.3
		c0-0.1,0-0.2,0-0.2C601.2,424.5,602.6,424.4,604,424.3z M597.8,425c-0.7,0-1.4,0.1-2.1,0.1c0-0.1,0-0.1,0-0.2
		c0.7-0.1,1.4-0.1,2.1-0.2C597.8,424.8,597.8,424.9,597.8,425z M585,425.8c2.7,0,5.5,0.2,8-0.2c0.9,0,1.7-0.1,2.6-0.1
		c2.3-0.2,4.6-0.3,6.9-0.5c2.9,1,5.8,2.1,8.8,3.1c0,0,0,0,0,0.1c-2.4-0.3-4.8-0.6-7.2-0.9c-4.1-0.7-8.3-0.6-12.8-0.7
		c-2-0.1-4.5,0-6.3,0.3C585,426.5,585,426.2,585,425.8z M577.5,443c-1.1,0-2.2,0-3.3,0c-1.2-5.3-2.3-10.7-3.5-16c-0.1,0-0.2,0-0.3,0
		c0,0-0.1,0.1-0.1,0.1c1.1,5.1,2.3,10.2,3.4,15.4c-3.1,0-6.3,0-9.4,0c-0.6,0-3,0.1-3.3-0.1c-1.1-4.6-2.1-9.3-3.2-13.9
		c-0.1,0-0.2,0.1-0.4,0.1c1,4.6,2,9.1,3.1,13.7c-0.1,0-0.1-0.1-0.2-0.1c-3.9-4.2-7.9-8.5-11.8-12.7c4.8-0.4,9.4-0.8,13.6-1.8
		c1.8-0.5,3.6-0.9,5.5-1.4c3.3,0.8,6.6,1.7,9.9,2.5C577.5,433.4,577.5,438.2,577.5,443z M589,426.9c5.2,0,10.2,0,14.8,0.8
		c1.8,0.2,3.7,0.4,5.5,0.6c-5.2-0.1-10.4-0.3-15.6-0.4c-2.9-0.4-6.1,0.3-8.8-0.3c0-0.1,0-0.2,0-0.3c0,0,0-0.1,0-0.1
		C586.4,427.1,587.7,427,589,426.9z M584.4,427.4c0.2,0,0.1,0,0.2,0.1C584.4,427.5,584.3,427.5,584.4,427.4z M585,429.9
		c0-0.6,0-1.3,0-1.9c0,0,0,0,0,0c0.9,0.1,1.8,0.3,2.7,0.4c-0.8,0-1.6,0-2.4,0c0,0.1,0,0.2,0,0.4c1.9,0.3,3.7,0.7,5.6,1c0,0,0,0,0,0
		C589,429.9,587,429.9,585,429.9z M577.9,429.9c0-0.4,0-0.8,0-1.2c1.6,0.4,3.1,0.8,4.7,1.2C581,429.9,579.4,429.9,577.9,429.9z
		 M587.7,428.9c2.1,0,4.2,0,6.4,0c4.3,4.6,8.7,9.3,13,13.9c-0.6,0.2-1.3,0.4-1.9,0.5c-3.4-3-6.9-6-10.3-8.9c0.8,0,1.7,0,2.5,0
		c-0.1-0.1-0.1-0.2-0.2-0.2c-1.2-1-2.4-2-3.6-2.9c-0.5-0.4-1.2-0.7-1.6-1.1c0-0.1,0-0.1,0-0.2c-0.2-0.1-0.4-0.2-0.5-0.4
		C590.2,429.3,589,429.1,587.7,428.9z M594.6,428.9c5.8,0,11.6,0,17.4,0c1.4,3.8,2.7,7.5,4.1,11.3c-2.9,0.8-5.7,1.6-8.6,2.4
		C603.3,438.1,599,433.5,594.6,428.9z M547.8,429.4c0.6,0.2,1.7,1.6,2.1,2.1c1.5,1.6,2.9,3.1,4.4,4.7c5.9,6.3,11.8,12.6,17.6,18.9
		c-0.4,0-0.8,0-1.2,0c-6.8-6.8-13.7-13.7-20.5-20.5c-1,0.1-4,0.5-4.5,0c0,0,0,0,0,0c1.1-0.3,2.9-0.2,4.3-0.2c-0.3-0.3-0.6-0.7-1-1
		c-1.3-1.3-2.7-2.6-4-3.8c0,0,0,0,0,0C546,429.4,546.9,429.4,547.8,429.4z M577.9,430.2c2.2,0,4.5,0.1,6.7,0.1c0,4.2,0,8.4,0,12.7
		c-2.2,0-4.5,0-6.7,0C577.9,438.7,577.9,434.5,577.9,430.2z M616.1,440.6c0.1,0,0.2,0,0.2,0c0.1,0.5,0.3,0.9,0.2,1.4
		c-0.8,1-3.6,2-4.8,2.6c-0.4,0.2-0.8,0.5-1.2,0.7c-0.5,0.2-1.2,0.4-1.8,0.3c-1.4-0.3-2.1-1.3-3-2c0,0,0,0,0,0
		C609.1,442.6,612.6,441.6,616.1,440.6z M561.1,442.8c3.2,0,6.4,0,9.7,0c0.6,0,2.9-0.1,2.9,0.2c0.1,0.2,0.2,0.4,0.3,0.6
		c-3,0-6.1,0-9.1,0c-0.6,0-2.8-0.1-2.9,0.2C561.7,443.5,561.4,443.1,561.1,442.8z M574.3,443.4c1.1,0,2.2,0,3.3,0
		c1.6,3.9,3.2,7.8,4.8,11.7c-0.9,0-1.8,0-2.7,0C577.9,451.2,576.1,447.3,574.3,443.4z M584.7,443.4c0.7,3.6,1.5,7.2,2.2,10.8
		c-1.5,0-2.9,0-4.4,0c-1.5-3.6-3-7.2-4.4-10.8c0,0,0,0,0,0C580.2,443.4,582.4,443.4,584.7,443.4z M562.2,444c4,0,8,0,12,0
		c1.7,3.7,3.3,7.4,5,11c-2.2,0-4.5,0-6.7,0C569,451.4,565.6,447.7,562.2,444z M582.7,454.6c1.4,0,2.9,0,4.3,0c0,0.1,0,0.3,0,0.4
		c-1.4,0-2.8,0-4.2,0C582.8,454.9,582.7,454.8,582.7,454.6z M577.5,458.7c-0.8,0-1.7,0-2.5,0c0,0.2,0,0.4,0,0.6
		c-1.3-1.3-2.6-2.6-3.8-3.9c4,0,7.9,0,11.9,0c0.7,0,3.8-0.2,4.1,0.1c0,0.2,0.1,0.4,0.1,0.6c-2.1,1.2-4.1,2.4-6.2,3.5
		c-0.9,0.5-2,1.4-3.5,1C577.5,460,577.5,459.4,577.5,458.7z M577.1,459.1c0,0.1,0,0.2,0,0.3c-0.5-0.3-1.2-0.3-1.8-0.2
		c0,0,0-0.1,0-0.1C575.9,459.1,576.5,459.1,577.1,459.1z M577.1,460.4c-0.6,0-1.2,0-1.8,0c0-0.1,0-0.2,0-0.3c0.6,0.2,1.3,0,1.7-0.1
		C577.1,460.1,577.1,460.2,577.1,460.4z" style="fill-rule: evenodd; clip-rule: evenodd; fill: rgb(204, 204, 204); opacity: 1;" transform="matrix(1, 0, 0, 1, 0, 0)"></path></svg>